# Blender 4.3.2
# www.blender.org
mtllib light_pole.mtl
o Cube.001
v -0.283129 9.516389 0.283128
v -0.283129 -0.283129 0.283129
v -0.283129 9.516389 -0.283130
v -0.283129 -0.283129 -0.283129
v 0.283129 9.516389 0.283128
v 0.283129 -0.283129 0.283129
v 0.283129 9.516389 -0.283130
v 0.283129 -0.283129 -0.283129
v -0.283129 10.152482 -0.231801
v 0.283129 10.152482 -0.231801
v -0.283129 10.477634 0.231799
v 0.283129 10.477634 0.231799
v -0.283129 10.940322 -0.760301
v 0.283129 10.940322 -0.760301
v -0.283129 11.412756 -0.448123
v 0.283129 11.412756 -0.448123
v -0.186237 11.621999 -1.616163
v 0.186237 11.621999 -1.616163
v -0.186237 11.932757 -1.410819
v 0.186237 11.932757 -1.410819
v -0.447098 11.567711 -1.602585
v 0.447098 11.567711 -1.602585
v -0.318112 12.257773 -1.663473
v 0.318112 12.257773 -1.663473
v -0.447098 12.671741 -4.456284
v 0.447098 12.671741 -4.456284
v -0.318112 12.660808 -3.693894
v 0.318112 12.660808 -3.693894
vn 1.0000 -0.0000 -0.0000
vn -0.0000 -0.0000 -1.0000
vn -0.0000 -1.0000 -0.0000
vn -1.0000 -0.0000 -0.0000
vn -0.0000 -0.0000 1.0000
vn -0.0000 0.0533 0.9986
vn -0.0000 0.0804 -0.9968
vn 0.9961 0.0488 -0.0739
vn -0.0000 -0.5571 -0.8305
vn -0.0000 0.5881 0.8088
vn -0.0000 0.6137 0.7895
vn -0.0000 -0.7822 -0.6230
vn -0.0000 0.8798 0.4753
vn -0.0000 0.8799 0.4753
vn -0.9961 0.0488 -0.0739
vn 0.9817 0.1868 0.0371
vn 0.1562 -0.5445 0.8241
vn 0.7436 0.1954 0.6395
vn -0.0000 0.2426 0.9701
vn -0.0000 0.9999 0.0143
vn -0.0000 -0.9326 -0.3608
vn -0.0000 0.9809 0.1947
vn -0.8991 0.4083 0.1580
vn 0.8991 0.4083 0.1580
vn -0.7436 0.1954 0.6395
vn -0.1562 -0.5445 0.8241
vn -0.9817 0.1868 0.0371
vt 0.625000 0.250000
vt 0.625000 0.000000
vt 0.625000 0.750000
vt 0.375000 1.000000
vt 0.375000 0.750000
vt 0.375000 0.250000
vt 0.375000 0.000000
vt 0.375000 0.500000
vt 0.125000 0.750000
vt 0.125000 0.500000
vt 0.625000 0.500000
vt 0.625000 1.000000
vt 0.875000 0.500000
vt 0.875000 0.750000
s 1
usemtl Material.001
f 5/1/1 10/2/1 12/1/1
f 3/3/2 8/4/2 4/5/2
f 7/2/1 6/6/1 8/7/1
f 2/8/3 8/9/3 6/10/3
f 1/11/4 4/5/4 2/8/4
f 5/1/5 2/8/5 6/6/5
f 11/11/4 13/3/4 9/3/4
f 1/11/4 9/3/4 3/3/4
f 5/1/6 11/11/6 1/11/6
f 3/3/7 10/12/7 7/12/7
f 14/2/8 20/1/8 16/1/8
f 12/1/1 14/2/1 16/1/1
f 9/3/9 14/12/9 10/12/9
f 12/1/10 15/11/10 11/11/10
f 20/1/11 23/11/11 19/11/11
f 13/3/12 18/12/12 14/12/12
f 16/1/13 19/11/13 15/11/14
f 15/11/15 17/3/15 13/3/15
f 22/2/16 28/1/16 24/1/16
f 19/11/17 21/3/17 17/3/17
f 20/1/18 22/2/18 24/1/18
f 18/12/19 21/3/19 22/12/19
f 28/13/20 25/3/20 27/11/20
f 21/3/21 26/12/21 22/12/21
f 24/1/22 27/11/22 23/11/22
f 21/3/23 27/11/23 25/3/23
f 5/1/1 7/2/1 10/2/1
f 3/3/2 7/12/2 8/4/2
f 7/2/1 5/1/1 6/6/1
f 2/8/3 4/5/3 8/9/3
f 1/11/4 3/3/4 4/5/4
f 5/1/5 1/11/5 2/8/5
f 11/11/4 15/11/4 13/3/4
f 1/11/4 11/11/4 9/3/4
f 5/1/6 12/1/6 11/11/6
f 3/3/7 9/3/7 10/12/7
f 14/2/8 18/2/8 20/1/8
f 12/1/1 10/2/1 14/2/1
f 9/3/9 13/3/9 14/12/9
f 12/1/10 16/1/10 15/11/10
f 20/1/11 24/1/11 23/11/11
f 13/3/12 17/3/12 18/12/12
f 16/1/13 20/1/13 19/11/13
f 15/11/15 19/11/15 17/3/15
f 22/2/24 26/2/24 28/1/24
f 19/11/25 23/11/25 21/3/25
f 20/1/26 18/2/26 22/2/26
f 18/12/19 17/3/19 21/3/19
f 28/13/20 26/14/20 25/3/20
f 21/3/21 25/3/21 26/12/21
f 24/1/22 28/1/22 27/11/22
f 21/3/27 23/11/27 27/11/27
o Cube.002
v -0.227358 11.733827 -2.249462
v 0.189127 11.733827 -2.249462
v -0.227358 12.218389 -3.734972
v 0.189127 12.218389 -3.734972
v -0.283241 11.776755 -2.014927
v 0.245011 11.776755 -2.014927
v -0.283241 12.391353 -3.899084
v 0.245011 12.391353 -3.899084
vn -0.0000 -0.9507 -0.3101
vn -0.0000 -0.6883 -0.7254
vn -0.0000 -0.9837 0.1800
vn 0.8972 -0.4198 -0.1369
vn -0.8972 -0.4198 -0.1369
vt 0.000000 1.000000
vt 1.000000 0.000000
vt 0.000000 0.000000
vt 1.000000 1.000000
s 1
usemtl Material.002
f 30/15/28 31/16/28 32/17/28
f 32/17/29 35/16/29 36/17/29
f 30/15/30 33/18/30 29/18/30
f 30/15/31 36/17/31 34/15/31
f 29/18/32 35/16/32 31/16/32
f 30/15/28 29/18/28 31/16/28
f 32/17/29 31/16/29 35/16/29
f 30/15/30 34/15/30 33/18/30
f 30/15/31 32/17/31 36/17/31
f 29/18/32 33/18/32 35/16/32
